<svg width="10" height="6" viewBox="0 0 10 6" fill="none" xmlns="http://www.w3.org/2000/svg">
<path d="M9.16646 0.641985C9.01033 0.486776 8.79912 0.399658 8.57896 0.399658C8.35881 0.399658 8.1476 0.486776 7.99146 0.641985L4.99979 3.59199L2.04979 0.641985C1.89366 0.486776 1.68245 0.399658 1.46229 0.399658C1.24214 0.399658 1.03093 0.486776 0.874794 0.641985C0.796687 0.719454 0.734692 0.811622 0.692385 0.913171C0.650078 1.01472 0.628296 1.12364 0.628296 1.23365C0.628296 1.34366 0.650078 1.45258 0.692385 1.55413C0.734692 1.65568 0.796687 1.74785 0.874794 1.82532L4.40813 5.35865C4.4856 5.43676 4.57776 5.49875 4.67931 5.54106C4.78086 5.58337 4.88978 5.60515 4.99979 5.60515C5.1098 5.60515 5.21873 5.58337 5.32027 5.54106C5.42182 5.49875 5.51399 5.43676 5.59146 5.35865L9.16646 1.82532C9.24457 1.74785 9.30656 1.65568 9.34887 1.55413C9.39118 1.45258 9.41296 1.34366 9.41296 1.23365C9.41296 1.12364 9.39118 1.01472 9.34887 0.913171C9.30656 0.811622 9.24457 0.719454 9.16646 0.641985Z" fill="#333333"/>
</svg>
