<svg width="21" height="20" viewBox="0 0 21 20" fill="none" xmlns="http://www.w3.org/2000/svg">
<path d="M19.64 11C19.4957 10.8807 19.3207 10.8043 19.1351 10.7795C18.9494 10.7548 18.7606 10.7827 18.59 10.86C17.5326 11.3439 16.3829 11.5929 15.22 11.59C13.0689 11.5874 11.006 10.7344 9.48115 9.2171C7.95632 7.69976 7.09321 5.64111 7.08001 3.49C7.08457 2.81583 7.16848 2.14454 7.33001 1.49C7.36429 1.31554 7.35143 1.13509 7.29277 0.967253C7.2341 0.799414 7.13175 0.65025 6.99626 0.53513C6.86076 0.42001 6.69702 0.343097 6.52191 0.312313C6.3468 0.28153 6.16665 0.29799 6.00001 0.359999C4.43234 1.06491 3.06958 2.15676 2.03977 3.53298C1.00996 4.9092 0.346893 6.52462 0.112862 8.22748C-0.121168 9.93034 0.0815189 11.6647 0.701883 13.2678C1.32225 14.8708 2.33993 16.2898 3.65931 17.3915C4.9787 18.4932 6.55649 19.2414 8.24446 19.5658C9.93243 19.8903 11.6752 19.7803 13.309 19.2462C14.9428 18.7122 16.414 17.7716 17.5844 16.5128C18.7548 15.254 19.5861 13.7183 20 12.05C20.0504 11.859 20.0431 11.6573 19.9791 11.4705C19.915 11.2836 19.797 11.1199 19.64 11ZM10.14 17.69C8.46177 17.6782 6.82821 17.1479 5.46301 16.1717C4.0978 15.1956 3.06768 13.8213 2.5137 12.2371C1.95971 10.6529 1.90895 8.93618 2.36835 7.322C2.82776 5.70782 3.77487 4.2751 5.08001 3.22V3.49C5.08266 6.17848 6.15183 8.75609 8.05287 10.6571C9.95392 12.5582 12.5315 13.6274 15.22 13.63C15.9259 13.6326 16.63 13.5588 17.32 13.41C16.6299 14.7155 15.5965 15.8078 14.3312 16.5691C13.0659 17.3304 11.6167 17.7318 10.14 17.73V17.69Z" fill="white"/>
</svg>
