<svg width="60" height="60" viewBox="0 0 60 60" fill="none" xmlns="http://www.w3.org/2000/svg">
<rect width="60" height="60" rx="24" fill="#262626"/>
<path d="M23.7517 30C23.7517 26.5483 26.5491 23.7495 30.0007 23.7495C33.4524 23.7495 36.2512 26.5483 36.2512 30C36.2512 33.4516 33.4524 36.2505 30.0007 36.2505C26.5491 36.2505 23.7517 33.4516 23.7517 30ZM20.3728 30C20.3728 35.3175 24.6832 39.6279 30.0007 39.6279C35.3182 39.6279 39.6286 35.3175 39.6286 30C39.6286 24.6825 35.3182 20.3721 30.0007 20.3721C24.6832 20.3721 20.3728 24.6825 20.3728 30ZM37.7598 19.9903C37.7596 20.4354 37.8914 20.8704 38.1385 21.2405C38.3856 21.6106 38.7368 21.8992 39.1479 22.0696C39.559 22.2401 40.0114 22.2848 40.4478 22.1982C40.8843 22.1115 41.2853 21.8974 41.6001 21.5829C41.9149 21.2683 42.1294 20.8675 42.2164 20.4311C42.3034 19.9947 42.259 19.5422 42.0889 19.131C41.9187 18.7198 41.6305 18.3683 41.2606 18.1209C40.8906 17.8736 40.4557 17.7414 40.0107 17.7413H40.0098C39.4133 17.7415 38.8413 17.9785 38.4194 18.4002C37.9975 18.822 37.7603 19.3939 37.7598 19.9903ZM22.4257 45.2621C20.5977 45.1788 19.6041 44.8743 18.9438 44.6171C18.0684 44.2762 17.4438 43.8703 16.7871 43.2145C16.1304 42.5587 15.7239 41.9347 15.3846 41.0593C15.1272 40.3993 14.8227 39.4055 14.7396 37.5774C14.6487 35.601 14.6305 35.0073 14.6305 30.0002C14.6305 24.993 14.6502 24.4009 14.7396 22.4229C14.8228 20.5948 15.1296 19.6029 15.3846 18.9409C15.7254 18.0655 16.1313 17.4409 16.7871 16.7843C17.4429 16.1276 18.0669 15.7211 18.9438 15.3818C19.6038 15.1244 20.5977 14.8198 22.4257 14.7367C24.4021 14.6458 24.9958 14.6277 30.0007 14.6277C35.0056 14.6277 35.5999 14.6473 37.578 14.7367C39.406 14.82 40.398 15.1267 41.0599 15.3818C41.9353 15.7211 42.5599 16.1284 43.2166 16.7843C43.8733 17.4401 44.2783 18.0655 44.6191 18.9409C44.8765 19.6009 45.181 20.5948 45.2641 22.4229C45.355 24.4009 45.3732 24.993 45.3732 30.0002C45.3732 35.0073 45.355 35.5993 45.2641 37.5774C45.1809 39.4055 44.8749 40.399 44.6191 41.0593C44.2783 41.9347 43.8724 42.5593 43.2166 43.2145C42.5608 43.8697 41.9353 44.2762 41.0599 44.6171C40.3999 44.8745 39.406 45.1789 37.578 45.2621C35.6016 45.3529 35.0079 45.3711 30.0007 45.3711C24.9936 45.3711 24.4015 45.3529 22.4257 45.2621ZM22.2705 11.3635C20.2744 11.4544 18.9105 11.7709 17.7193 12.2344C16.4857 12.7131 15.4414 13.3552 14.3979 14.3971C13.3543 15.439 12.7138 16.485 12.2352 17.7186C11.7717 18.9105 11.4552 20.2737 11.3643 22.2698C11.2719 24.269 11.2507 24.9081 11.2507 30C11.2507 35.0919 11.2719 35.731 11.3643 37.7302C11.4552 39.7264 11.7717 41.0895 12.2352 42.2814C12.7138 43.5142 13.3545 44.5614 14.3979 45.6028C15.4413 46.6443 16.4857 47.2855 17.7193 47.7656C18.9127 48.229 20.2744 48.5455 22.2705 48.6364C24.2707 48.7273 24.9088 48.75 30.0007 48.75C35.0926 48.75 35.7318 48.7288 37.731 48.6364C39.7272 48.5455 41.0902 48.229 42.2821 47.7656C43.515 47.2855 44.56 46.6447 45.6036 45.6028C46.6471 44.5609 47.2863 43.5142 47.7663 42.2814C48.2298 41.0895 48.5478 39.7263 48.6372 37.7302C48.7281 35.7295 48.7492 35.0919 48.7492 30C48.7492 24.9081 48.7281 24.269 48.6372 22.2698C48.5463 20.2736 48.2298 18.9097 47.7663 17.7186C47.2863 16.4857 46.6455 15.4407 45.6036 14.3971C44.5617 13.3536 43.515 12.7131 42.2836 12.2344C41.0902 11.7709 39.727 11.453 37.7325 11.3635C35.7333 11.2727 35.0941 11.25 30.0022 11.25C24.9103 11.25 24.2707 11.2712 22.2705 11.3635Z" fill="white"/>
</svg>
