<svg width="9" height="5" viewBox="0 0 9 5" fill="none" xmlns="http://www.w3.org/2000/svg">
<path d="M8.45806 0.259901C8.30973 0.112452 8.10908 0.0296898 7.89993 0.0296898C7.69079 0.0296898 7.49014 0.112452 7.34181 0.259901L4.49972 3.0624L1.69723 0.259901C1.5489 0.112452 1.34825 0.0296898 1.1391 0.0296898C0.929953 0.0296898 0.729304 0.112452 0.580975 0.259901C0.506774 0.333496 0.447878 0.421055 0.407686 0.517527C0.367494 0.613999 0.346802 0.717475 0.346802 0.821984C0.346802 0.926493 0.367494 1.02997 0.407686 1.12644C0.447878 1.22291 0.506774 1.31047 0.580975 1.38407L3.93764 4.74073C4.01124 4.81494 4.0988 4.87383 4.19527 4.91402C4.29174 4.95422 4.39522 4.97491 4.49972 4.97491C4.60423 4.97491 4.70771 4.95422 4.80418 4.91402C4.90065 4.87383 4.98821 4.81494 5.06181 4.74073L8.45806 1.38407C8.53226 1.31047 8.59115 1.22291 8.63135 1.12644C8.67154 1.02997 8.69223 0.926493 8.69223 0.821984C8.69223 0.717475 8.67154 0.613999 8.63135 0.517527C8.59115 0.421055 8.53226 0.333496 8.45806 0.259901Z" fill="#333333"/>
</svg>
