<svg width="60" height="60" viewBox="0 0 60 60" fill="none" xmlns="http://www.w3.org/2000/svg">
<rect width="60" height="60" rx="24" fill="#00AFF0"/>
<path d="M47.4227 33.1231C47.4108 33.1891 47.4025 33.2556 47.39 33.3215L47.3259 32.9438C47.3609 33.0026 47.39 33.0638 47.4227 33.1231C47.6163 32.0696 47.7179 30.9911 47.7179 29.9133C47.7179 27.5229 47.2499 25.2039 46.3252 23.0208C45.4332 20.912 44.157 19.0181 42.5298 17.3921C40.905 15.7661 39.0099 14.4898 36.9023 13.5978C34.7198 12.6744 32.4007 12.2064 30.0104 12.2064C28.8838 12.2064 27.7555 12.3121 26.6574 12.5229C26.655 12.5235 26.6521 12.5235 26.6491 12.5241C26.7108 12.5568 26.7732 12.5859 26.8338 12.6197L26.4614 12.5615C26.5238 12.5497 26.5867 12.5366 26.6491 12.5241C25.1424 11.723 23.4481 11.2954 21.733 11.2954C18.9329 11.2954 16.3003 12.3858 14.3203 14.3663C12.3409 16.3463 11.25 18.9789 11.25 21.779C11.25 23.5612 11.7085 25.3131 12.569 26.8614C12.5803 26.7972 12.588 26.7325 12.6005 26.6684L12.6646 27.0395C12.6313 26.9813 12.6022 26.9208 12.569 26.8614C12.3944 27.8644 12.3023 28.8894 12.3023 29.9133C12.3023 32.3042 12.7703 34.6227 13.695 36.8063C14.5858 38.9158 15.8626 40.8084 17.488 42.4345C19.1152 44.0605 21.0079 45.3385 23.1179 46.2281C25.3004 47.1534 27.6201 47.6219 30.0104 47.6219C31.0509 47.6219 32.0937 47.5269 33.1116 47.3464C33.0522 47.3131 32.9916 47.2828 32.9311 47.2478L33.3093 47.3143C33.244 47.3268 33.1781 47.3345 33.1116 47.3464C34.68 48.2336 36.4557 48.7051 38.2688 48.7051C41.0683 48.7051 43.6997 47.6166 45.6797 45.6354C47.6602 43.6566 48.75 41.0234 48.75 38.2233C48.75 36.4352 48.2892 34.6773 47.4227 33.1231ZM30.0811 40.758C23.7902 40.758 20.9758 37.6651 20.9758 35.3472C20.9758 34.1583 21.8536 33.3251 23.0633 33.3251C25.7553 33.3251 25.0581 37.1906 30.0811 37.1906C32.6525 37.1906 34.0725 35.7944 34.0725 34.3655C34.0725 33.5062 33.6484 32.5536 31.9553 32.1361L26.3599 30.7393C21.8536 29.6092 21.0358 27.1732 21.0358 24.8832C21.0358 20.1287 25.5124 18.3435 29.7164 18.3435C33.5891 18.3435 38.1542 20.4838 38.1542 23.3361C38.1542 24.5583 37.0959 25.2692 35.8867 25.2692C33.5891 25.2692 34.0119 22.089 29.3839 22.089C27.0874 22.089 25.8153 23.1289 25.8153 24.6171C25.8153 26.1024 27.629 26.5769 29.2039 26.9356L33.3456 27.8549C37.8822 28.8657 39.0325 31.5144 39.0325 34.0092C39.0325 37.8729 36.0667 40.758 30.0811 40.758ZM32.9311 47.2478C32.9916 47.2828 33.0522 47.3131 33.1116 47.3464C33.1781 47.3345 33.244 47.3268 33.3093 47.3143L32.9311 47.2478ZM47.39 33.3215C47.4025 33.2556 47.4108 33.1891 47.4227 33.1231C47.39 33.0638 47.3609 33.0026 47.3259 32.9438L47.39 33.3215ZM12.6005 26.6684C12.588 26.7325 12.5803 26.7972 12.569 26.8614C12.6022 26.9208 12.6313 26.9813 12.6646 27.0395L12.6005 26.6684ZM26.8338 12.6197C26.7732 12.5859 26.7108 12.5568 26.6491 12.5241C26.5867 12.5366 26.5238 12.5497 26.4614 12.5615L26.8338 12.6197Z" fill="white"/>
</svg>
