<svg width="37" height="30" viewBox="0 0 37 30" fill="none" xmlns="http://www.w3.org/2000/svg">
<path d="M32.7031 7.51563C32.7031 7.84375 32.7031 8.17188 32.7031 8.45313C32.7031 18.1563 25.2969 29.3594 11.7969 29.3594C7.625 29.3594 3.78125 28.1406 0.5 26.0781C1.0625 26.125 1.67188 26.1719 2.23438 26.1719C5.65625 26.1719 8.84375 25 11.375 23.0313C8.14062 22.9844 5.42188 20.8281 4.53125 17.9219C5 18.0156 5.42188 18.0625 5.9375 18.0625C6.59375 18.0625 7.25 17.9688 7.85938 17.7813C4.48438 17.125 1.95312 14.1719 1.95312 10.6094C1.95312 10.5625 1.95312 10.5625 1.95312 10.5156C2.9375 11.0781 4.0625 11.4063 5.28125 11.4531C3.3125 10.1406 2 7.89063 2 5.3125C2 3.95313 2.375 2.6875 2.98438 1.60938C6.59375 6.0625 12.0312 8.96875 18.125 9.29688C17.9844 8.78125 17.9375 8.17188 17.9375 7.60938C17.9375 3.53125 21.2188 0.25 25.2969 0.25C27.4063 0.25 29.3281 1.14063 30.6406 2.54688C32.3281 2.21875 33.875 1.60938 35.3281 0.765625C34.7656 2.5 33.5938 3.90625 32.0938 4.84375C33.5938 4.65625 35 4.28125 36.3125 3.67188C35.375 5.17188 34.1563 6.48438 32.7031 7.51563Z" fill="white"/>
</svg>
