<svg width="60" height="60" viewBox="0 0 60 60" fill="none" xmlns="http://www.w3.org/2000/svg">
<g id="Vkontakte (VK)">
<g id="Vkontakte (VK)_2">
<rect id="Rectangle" width="60" height="60" rx="24" fill="#5181B8"/>
<path id="Vector" fill-rule="evenodd" clip-rule="evenodd" d="M49.0822 20.6681C49.3604 19.741 49.0822 19.0596 47.7588 19.0596H43.3828C42.27 19.0596 41.7574 19.6481 41.4792 20.2974C41.4792 20.2974 39.2537 25.7214 36.1011 29.2448C35.0812 30.2647 34.6176 30.5888 34.0612 30.5888C33.783 30.5888 33.3805 30.2647 33.3805 29.3376V20.6681C33.3805 19.5553 33.0576 19.0596 32.1302 19.0596H25.2536C24.5584 19.0596 24.1402 19.5759 24.1402 20.0654C24.1402 21.1204 25.7162 21.3635 25.8787 24.3305V30.7748C25.8787 32.1876 25.6236 32.4439 25.0673 32.4439C23.5838 32.4439 19.9755 26.9952 17.835 20.7609C17.4155 19.5491 16.9948 19.0596 15.8764 19.0596H11.5003C10.2501 19.0596 10 19.6481 10 20.2974C10 21.4564 11.4838 27.2052 16.9079 34.8082C20.5243 40.0001 25.6186 42.8151 30.2547 42.8151C33.0366 42.8151 33.3805 42.19 33.3805 41.1132V37.1888C33.3805 35.9385 33.644 35.6891 34.5245 35.6891C35.174 35.6891 36.2864 36.0135 38.883 38.5169C41.8499 41.4836 42.3388 42.8151 44.0079 42.8151H48.384C49.6342 42.8151 50.2594 42.19 49.8987 40.9562C49.5042 39.7266 48.0876 37.943 46.2078 35.8282C45.1879 34.6226 43.6579 33.3245 43.1946 32.6756C42.5454 31.841 42.7308 31.4703 43.1946 30.7289C43.1946 30.7289 48.5259 23.2184 49.0822 20.6684V20.6681Z" fill="white"/>
</g>
</g>
</svg>
