<svg width="60" height="60" viewBox="0 0 60 60" fill="none" xmlns="http://www.w3.org/2000/svg">
<rect width="60" height="60" rx="24" fill="#FF0000"/>
<path fill-rule="evenodd" clip-rule="evenodd" d="M44.6724 17.6752C46.2787 18.1077 47.5452 19.3741 47.9776 20.9804C48.7807 23.9149 48.7498 30.031 48.7498 30.031C48.7498 30.031 48.7498 36.1162 47.9776 39.0507C47.5452 40.657 46.2787 41.9235 44.6724 42.3559C41.7379 43.1281 29.9999 43.1281 29.9999 43.1281C29.9999 43.1281 18.2928 43.1281 15.3274 42.325C13.7212 41.8926 12.4547 40.6261 12.0222 39.0198C11.25 36.1162 11.25 30.0001 11.25 30.0001C11.25 30.0001 11.25 23.9149 12.0222 20.9804C12.4547 19.3741 13.752 18.0768 15.3274 17.6443C18.2619 16.8721 29.9999 16.8721 29.9999 16.8721C29.9999 16.8721 41.7379 16.8721 44.6724 17.6752ZM36.0233 30.0001L26.2623 35.622V24.3782L36.0233 30.0001Z" fill="white"/>
</svg>
